<?xml version="1.0" standalone="no"?>
<!DOCTYPE svg PUBLIC "-//W3C//DTD SVG 20010904//EN"
 "http://www.w3.org/TR/2001/REC-SVG-20010904/DTD/svg10.dtd">
<svg version="1.0" xmlns="http://www.w3.org/2000/svg"
 width="16.000000pt" height="16.000000pt" viewBox="0 0 16.000000 16.000000"
 preserveAspectRatio="xMidYMid meet">
<metadata>
Created by potrace 1.11, written by Peter Selinger 2001-2013
</metadata>
<g transform="translate(0.000000,16.000000) scale(0.006154,-0.006154)"
fill="#000000" stroke="none">
<path d="M2200 1756 c0 -2 12 -30 26 -62 14 -32 28 -78 31 -104 l5 -46 -56
-43 c-30 -24 -62 -55 -70 -70 -7 -14 -27 -51 -44 -81 -65 -118 -38 -223 72
-269 27 -12 62 -21 78 -21 43 0 68 -17 68 -47 0 -25 -1 -26 -47 -19 -223 33
-572 24 -1038 -25 -376 -40 -686 -46 -800 -15 -125 33 -195 78 -272 173 -21
27 -63 22 -63 -7 0 -30 94 -124 157 -157 112 -60 162 -68 423 -67 194 0 288 6
540 33 509 55 872 54 1142 -3 107 -22 148 -19 148 10 0 11 -114 44 -155 44
-13 0 -16 8 -13 37 3 37 4 38 52 45 96 13 141 73 130 173 -12 111 -66 215
-137 265 -65 46 -75 58 -98 129 -23 71 -55 131 -70 131 -5 0 -9 -2 -9 -4z"/>
<path d="M405 1616 c-69 -17 -124 -47 -166 -93 -57 -60 -72 -97 -77 -196 -4
-83 -3 -91 28 -153 37 -76 86 -116 169 -140 79 -23 190 -15 265 19 32 15 60
27 62 27 2 0 4 -11 4 -24 0 -27 16 -36 65 -36 l33 0 4 133 c3 72 3 135 1 140
-2 4 -71 7 -153 7 l-149 0 -7 -35 c-11 -60 -4 -65 87 -65 70 0 80 -2 69 -14
-48 -59 -206 -80 -287 -38 -151 78 -119 297 52 355 67 23 172 22 237 -3 29
-11 56 -20 60 -20 4 0 17 18 28 39 l20 40 -29 20 c-62 45 -214 62 -316 37z"/>
<path d="M739 1470 c-23 -54 -39 -106 -36 -114 10 -25 35 -18 52 14 22 42 60
41 78 -2 12 -28 18 -32 60 -34 47 -3 47 -3 47 29 l0 32 26 -32 c20 -26 33 -33
59 -33 38 0 49 11 40 40 -4 13 -15 20 -30 20 -34 0 -42 20 -16 41 30 24 50 66
43 91 -8 31 -66 51 -124 43 l-50 -7 6 -57 c3 -31 2 -73 -2 -94 l-7 -39 -33 95
c-47 133 -59 133 -113 7z m255 34 c15 -6 15 -8 -1 -20 -24 -18 -43 -18 -43 0
0 8 6 17 13 19 6 3 13 6 14 6 1 1 9 -2 17 -5z"/>
<path d="M1834 1563 l-30 -4 0 -112 c1 -108 2 -112 24 -115 19 -3 22 1 22 30
l0 33 26 -32 c20 -26 33 -33 59 -33 38 0 49 11 40 40 -4 13 -15 20 -30 20 -38
0 -40 19 -6 52 37 37 44 78 18 105 -14 14 -78 23 -123 16z m71 -80 c-24 -17
-45 -17 -45 1 0 17 18 25 44 18 18 -5 18 -6 1 -19z"/>
<path d="M1077 1553 c-2 -5 -1 -55 2 -113 l6 -105 37 2 c56 3 117 38 133 76
l14 32 3 -55 3 -55 79 3 c51 1 83 7 88 15 6 9 8 9 8 -1 0 -8 9 -12 23 -10 17
2 23 11 25 35 l3 32 31 -35 c20 -23 38 -34 52 -32 20 3 21 10 24 106 3 103 3
103 -20 100 -20 -3 -24 -10 -28 -63 l-6 -60 -32 67 c-26 55 -35 65 -52 61 -18
-5 -20 -13 -20 -97 -1 -74 -3 -87 -12 -71 -6 11 -12 33 -12 50 -1 29 -2 29
-48 26 -42 -2 -48 0 -48 18 0 17 8 20 48 23 43 3 47 5 47 28 0 24 -2 25 -77
28 l-78 3 -1 -48 c-1 -26 -4 -38 -6 -26 -2 12 -18 34 -34 48 -25 20 -41 25
-89 25 -32 0 -61 -3 -63 -7z m117 -59 c10 -4 16 -18 16 -35 0 -21 -7 -32 -30
-44 -45 -23 -50 -19 -50 35 0 46 2 50 24 50 13 0 31 -3 40 -6z m169 -101 c-7
-2 -19 -2 -25 0 -7 3 -2 5 12 5 14 0 19 -2 13 -5z"/>
<path d="M1627 1553 c-2 -5 -2 -56 1 -115 l5 -108 26 0 c14 0 50 3 79 6 49 6
52 8 52 35 0 17 -5 29 -12 29 -10 0 -10 3 0 9 8 5 12 17 10 27 -2 15 -14 20
-56 22 -44 3 -52 6 -52 23 0 16 7 19 50 19 49 0 50 1 50 30 l0 30 -74 0 c-41
0 -77 -3 -79 -7z"/>
<path d="M1201 1283 c-32 -4 -33 -5 -27 -41 3 -20 6 -72 6 -114 0 -76 0 -78
25 -78 21 0 25 5 25 33 1 29 2 30 12 12 17 -32 39 -45 75 -45 29 0 33 3 33 25
0 21 -5 25 -29 25 -22 0 -32 6 -37 22 -4 13 -2 24 4 26 31 10 62 46 62 70 0
35 -10 49 -43 61 -28 11 -42 11 -106 4z m83 -49 c24 -9 19 -22 -14 -39 -38
-20 -40 -19 -40 8 0 36 17 45 54 31z"/>
<path d="M814 1243 c3 -21 6 -73 6 -115 l0 -78 34 0 c18 0 54 3 80 6 40 6 46
10 46 30 0 23 -2 24 -55 18 -35 -4 -55 -3 -55 3 0 12 33 23 72 23 31 0 41 11
31 35 -5 14 -15 16 -55 12 -48 -6 -48 -6 -48 23 0 29 1 30 49 30 48 0 63 10
54 38 -3 8 -30 12 -85 12 l-81 0 7 -37z"/>
<path d="M1024 1246 c-30 -30 -34 -40 -34 -84 0 -65 6 -80 42 -98 58 -30 120
8 134 82 8 45 -2 81 -31 110 -34 34 -70 31 -111 -10z m85 -39 c20 -51 -21
-124 -54 -97 -31 26 -7 120 31 120 8 0 18 -10 23 -23z"/>
<path d="M1424 1266 c-43 -19 -64 -53 -64 -104 0 -37 6 -50 35 -79 28 -28 41
-34 70 -32 25 3 38 -2 48 -15 9 -12 20 -17 31 -13 13 5 16 21 16 77 l0 70 -40
0 c-43 0 -63 -21 -41 -43 17 -17 13 -27 -12 -27 -45 0 -71 55 -47 100 12 23
55 34 81 20 15 -9 24 -8 35 1 23 19 16 36 -17 48 -41 14 -57 13 -95 -3z"/>
<path d="M1568 1273 c-2 -4 -2 -56 0 -115 l4 -108 41 0 c23 1 62 5 86 9 29 6
51 5 62 -2 13 -8 21 -7 33 2 8 7 20 10 26 6 6 -4 17 -2 25 5 9 7 15 8 20 0 9
-15 71 -12 88 5 8 8 15 32 15 55 1 34 -3 43 -24 52 -20 10 -29 8 -52 -9 -14
-11 -30 -31 -33 -44 -6 -20 -7 -17 -9 16 -1 22 -1 51 0 63 1 18 -3 23 -17 20
-18 -3 -20 -11 -22 -74 -1 -28 -3 -30 -31 -26 -24 3 -32 0 -39 -19 -5 -13 -10
-18 -10 -11 -1 9 -15 11 -56 6 -35 -4 -55 -3 -55 3 0 11 46 23 86 23 19 0 24
5 24 26 0 26 -1 27 -55 20 l-55 -6 0 29 c0 29 2 30 53 33 44 3 52 6 52 23 0
18 -8 20 -77 23 -42 2 -78 -1 -80 -5z m359 -169 c-3 -3 -12 -4 -19 -1 -8 3 -5
6 6 6 11 1 17 -2 13 -5z"/>
</g>
</svg>
